<?xml version="1.0" standalone="no"?>
<!DOCTYPE svg PUBLIC "-//W3C//DTD SVG 1.1//EN" "http://www.w3.org/Graphics/SVG/1.1/DTD/svg11.dtd" >
<svg xmlns="http://www.w3.org/2000/svg">
<metadata></metadata>
<defs>
<font id="nimbussantconboldregular" horiz-adv-x="833" >
<font-face units-per-em="2048" ascent="1638" descent="-410" />
<missing-glyph horiz-adv-x="382" />
<glyph horiz-adv-x="2048" />
<glyph horiz-adv-x="2048" />
<glyph unicode="&#xd;" horiz-adv-x="382" />
<glyph unicode=" "  horiz-adv-x="382" />
<glyph unicode="&#x09;" horiz-adv-x="382" />
<glyph unicode="&#xa0;" horiz-adv-x="382" />
<glyph unicode="!" horiz-adv-x="438" d="M113 0v253h212v-253h-212zM113 530v835h212v-835l-32 -185h-149z" />
<glyph unicode="&#x22;" horiz-adv-x="692" d="M75 1365h233l-37 -559h-158zM384 1365h233l-38 -559h-158z" />
<glyph unicode="#" d="M23 414l22 155h122l41 254h-120l22 155h120l60 387h160l-63 -387h143l61 387h162l-61 -387h117l-22 -155h-118l-40 -254h120l-22 -155h-121l-65 -414h-168l69 414h-140l-66 -414h-157l66 414h-122zM327 569h140l39 254h-140z" />
<glyph unicode="$" d="M70 366v120h205v-120q0 -195 137 -195q132 0 132 146q0 113 -107 209l-162 146q-95 85 -141 155q-59 89 -59 221q0 302 283 330v138h106v-141q259 -32 259 -330v-112h-205v112q0 150 -120 150q-111 0 -111 -136q0 -97 104 -187l167 -145q113 -98 158 -178q54 -95 54 -227 q0 -218 -152 -295q-57 -29 -154 -38v-166h-106v167q-207 18 -264 191q-24 73 -24 185z" />
<glyph unicode="%" horiz-adv-x="1122" d="M68 950v146q0 135 15 177q38 106 177 106q106 0 152 -60q40 -52 40 -223v-146q0 -133 -15 -176q-38 -107 -177 -107q-105 0 -152 60q-40 51 -40 223zM158 0l682 1365h122l-681 -1365h-123zM205 906q0 -119 55 -119t55 119v234q0 120 -55 120t-55 -120v-234zM670 269v146 q0 135 15 177q37 106 177 106q106 0 152 -60q40 -52 40 -223v-146q0 -137 -14 -177q-37 -106 -178 -106q-105 0 -152 60q-40 51 -40 223zM807 225q0 -119 55 -119t55 119v234q0 119 -55 119t-55 -119v-234z" />
<glyph unicode="&#x26;" horiz-adv-x="995" d="M75 393q0 173 105 303q54 67 146 144q-89 175 -89 278q0 119 84 192q79 69 200 69q120 0 198 -66q84 -69 84 -187q0 -108 -77 -199q-42 -50 -138 -143l122 -264q28 86 46 264h179q-13 -307 -108 -519l125 -265h-242l-38 81q-52 -40 -88 -58q-68 -34 -150 -34 q-169 0 -267 120q-92 111 -92 284zM300 394q0 -75 36 -132q42 -67 113 -67q80 0 134 82l-166 365q-117 -110 -117 -248zM443 1127q0 -47 62 -168q45 45 64 72q31 44 31 95q0 83 -76 83q-35 0 -58 -23.5t-23 -58.5z" />
<glyph unicode="'" horiz-adv-x="384" d="M75 1365h233l-37 -559h-158z" />
<glyph unicode="(" horiz-adv-x="486" d="M89 246v538q0 371 87 479q76 94 222 123v-198q-41 -19 -55.5 -54.5t-14.5 -158.5v-920q0 -95 5 -120q13 -68 65 -93v-198q-165 33 -240 148q-69 106 -69 454z" />
<glyph unicode=")" horiz-adv-x="486" d="M89 -158q53 25 65 92q5 25 5 121v920q0 95 -5 120q-13 68 -65 93v198q165 -33 240 -148q69 -106 69 -454v-538q0 -370 -88 -479q-76 -94 -221 -123v198z" />
<glyph unicode="*" horiz-adv-x="673" d="M79 1124l46 141l141 -50l-4 150h149l-5 -150l142 50l46 -141l-144 -42l91 -119l-120 -88l-85 124l-85 -123l-120 87l92 119z" />
<glyph unicode="+" d="M74 606v153h264v264h157v-264h263v-153h-263v-263h-157v263h-264z" />
<glyph unicode="," horiz-adv-x="390" d="M86 0v253h218v-253l-218 -214v113l100 101h-100z" />
<glyph unicode="-" horiz-adv-x="344" d="M0 441v191h344v-191h-344z" />
<glyph unicode="." horiz-adv-x="390" d="M86 0v253h218v-253h-218z" />
<glyph unicode="/" horiz-adv-x="556" d="M-48 -335l435 1700h131l-435 -1700h-131z" />
<glyph unicode="0" d="M75 419v527q0 223 55 311q80 128 287 128q206 0 286 -128q55 -88 55 -311v-527q0 -223 -55 -311q-80 -128 -286 -128q-207 0 -287 128q-55 88 -55 311zM314 404q0 -136 19 -185q21 -55 84 -55q61 0 83 55q19 48 19 185v557q0 137 -19 185q-22 55 -83 55q-62 0 -84 -55 q-19 -48 -19 -185v-557z" />
<glyph unicode="1" d="M193 1117v153q132 7 171 95h208v-1365h-225v1117h-154z" />
<glyph unicode="2" d="M81 28q0 312 148 539q43 65 163 214q74 91 98 140q28 57 28 125q0 148 -101 148q-102 0 -102 -170v-130h-229v95q0 186 59 272q85 124 279 124q156 0 244 -90.5t88 -247.5q0 -106 -42 -193q-31 -65 -128 -185q-153 -190 -197 -275q-47 -92 -62 -182h421v-212h-666 q-1 19 -1 28z" />
<glyph unicode="3" d="M86 325v152h223v-130q0 -85 16 -123q25 -60 97 -60t97 56q18 41 18 146q0 132 -11 174q-18 69 -76 87q-32 10 -94 10h-60v184h51q99 0 131 42q27 36 27 140q0 89 -11 127q-22 71 -89 71q-96 0 -96 -155v-83h-216v73q0 177 66 259q74 90 248 90q178 0 255 -95 q68 -86 68 -268q0 -141 -28 -201q-22 -46 -89 -89q127 -48 142 -197q7 -69 7 -148q0 -157 -27 -228q-68 -179 -311 -179q-183 0 -269 92q-69 74 -69 253z" />
<glyph unicode="4" d="M75 296v183l389 886h212v-886h99v-183h-99v-296h-212v296h-389zM267 479h197v246q0 173 13 284q-29 -88 -104 -272z" />
<glyph unicode="5" d="M85 316v161h218v-125q0 -188 104 -188q79 0 101 75q18 61 18 223q0 135 -9 180q-23 114 -108 114q-88 0 -106 -112h-203v721h625v-198h-420v-271q81 44 158 44q184 0 247 -140q41 -91 41 -329q0 -195 -16 -261q-55 -230 -324 -230q-171 0 -256 90q-70 74 -70 246z" />
<glyph unicode="6" d="M71 479v407q0 247 24 314q66 185 320 185q322 0 322 -292v-39h-225v27q0 133 -103 133q-106 0 -106 -156v-171q75 54 170 54q182 0 247 -140q42 -91 42 -331q0 -179 -15 -247q-53 -243 -330 -243q-181 0 -265 101q-57 68 -73 190q-8 58 -8 208zM303 460q0 -141 8 -181 q22 -115 109 -115t109 111q8 39 8 178q0 188 -22 242q-25 62 -97 62q-85 0 -107 -116q-8 -41 -8 -181z" />
<glyph unicode="7" d="M79 1153v212h681v-182q-124 -252 -194 -611q-67 -342 -66 -572h-261q20 279 93 578q83 340 196 575h-449z" />
<glyph unicode="8" d="M72 409q0 140 18 195q24 72 89 111q27 16 73 31q-78 24 -112 73q-45 64 -45 228q0 176 71 255q76 83 250 83q254 0 305 -181q16 -60 16 -155q0 -175 -53 -240q-35 -42 -104 -63q149 -49 171 -182q9 -54 9 -155q0 -174 -25 -243q-67 -186 -319 -186q-187 0 -271 102 q-73 89 -73 327zM297 405q0 -111 12 -154q25 -87 107 -87q81 0 106 85q13 43 13 152q0 115 -12 158q-25 88 -109 88q-80 0 -105 -88q-12 -44 -12 -154zM320 1026q0 -128 28 -162q21 -26 68 -26t68 26q28 34 28 157q0 100 -11 135q-18 58 -86 58q-46 0 -67 -26 q-28 -34 -28 -162z" />
<glyph unicode="9" d="M68 918q0 220 50 318q76 149 302 149q287 0 326 -241q13 -81 13 -190v-495q0 -210 -20 -277q-60 -202 -319 -202q-327 0 -327 292v39h225v-27q0 -133 103 -133q106 0 106 156v172q-75 -55 -170 -55q-159 0 -226 118q-63 111 -63 376zM293 904q0 -139 8 -181 q23 -115 109 -115q85 0 108 112q9 42 9 177q0 147 -8 186q-22 118 -111 118q-84 0 -107 -117q-8 -41 -8 -180z" />
<glyph unicode=":" horiz-adv-x="390" d="M86 0v253h218v-253h-218zM86 782v253h218v-253h-218z" />
<glyph unicode=";" horiz-adv-x="390" d="M86 0v253h218v-253l-218 -214v113l100 101h-100zM86 782v253h218v-253h-218z" />
<glyph unicode="&#x3c;" horiz-adv-x="1024" d="M68 604v180l887 435v-211l-662 -315l662 -316v-209z" />
<glyph unicode="=" d="M75 434v153h683v-153h-683zM75 700v153h683v-153h-683z" />
<glyph unicode="&#x3e;" horiz-adv-x="1024" d="M69 168v210l663 315l-663 316v209l887 -436v-179z" />
<glyph unicode="?" horiz-adv-x="777" d="M66 954v119q0 306 309 306q165 0 257 -86q94 -89 94 -253q0 -171 -178 -393l-98 -122q-38 -47 -50 -95q-5 -20 -14 -75h-200q1 80 24 145q36 101 117 211l90 122q53 72 63 94q21 47 21 102q0 145 -115 145t-115 -138v-82h-205zM177 0v253h212v-253h-212z" />
<glyph unicode="@" horiz-adv-x="1326" d="M86 681q0 304 173.5 504.5t423.5 200.5q226 0 384 -158q173 -173 173 -445q0 -244 -141 -401q-80 -89 -184 -89q-73 0 -110 46q-14 18 -28 52q-78 -92 -171 -92q-112 0 -174 103q-53 87 -53 206q0 142 73 258q83 133 218 133q95 0 142 -94l16 72h144l-78 -410 q-11 -58 -11 -83q0 -58 54 -58q41 0 80 59q82 125 82 294q0 195 -107 326q-116 141 -306 141q-189 0 -315 -156q-136 -168 -136 -410q0 -230 113 -385q126 -175 347 -175q181 0 356 100l43 -139q-190 -102 -398 -102q-284 0 -453 213q-157 198 -157 489zM541 609 q0 -167 89 -167q60 0 99 88q31 70 31 167q0 146 -81 146q-58 0 -101 -78q-37 -67 -37 -156z" />
<glyph unicode="A" horiz-adv-x="802" d="M18 0l217 1365h306l244 -1365h-231l-59 365h-198l-49 -365h-230zM322 563h145l-37 231q-20 124 -42 359q-17 -223 -35 -359z" />
<glyph unicode="B" horiz-adv-x="848" d="M102 0v1365h283q162 0 226 -26q139 -56 139 -336q0 -153 -34 -218q-25 -48 -100 -71q93 -26 123 -89q35 -74 35 -244q0 -231 -87 -312q-74 -69 -316 -69h-269zM338 198h41q100 0 132 55q24 40 24 151q0 110 -24 149q-33 53 -132 53h-41v-408zM338 804h75q75 0 98 56 q14 34 14 125q0 93 -13 126q-23 56 -99 56h-75v-363z" />
<glyph unicode="C" horiz-adv-x="826" d="M86 460v446q0 200 20 274q56 205 328 205q306 0 332 -247q8 -77 8 -191v-29h-235v77q0 116 -17 154q-20 45 -87 45q-80 0 -103 -77q-10 -35 -10 -145v-578q0 -110 10 -145q22 -78 103 -78q66 0 87 46q17 37 17 154v127h235v-38q0 -200 -20 -274q-56 -206 -323 -206 q-204 0 -284 115q-44 63 -56 176q-5 51 -5 189z" />
<glyph unicode="D" horiz-adv-x="882" d="M102 0v1365h306q177 0 244 -28q103 -43 130 -176q14 -70 14 -269v-438q0 -221 -22 -289q-38 -118 -151 -148q-63 -17 -215 -17h-306zM338 182h56q104 0 138 47q28 38 28 169v571q0 131 -28 169q-34 47 -138 47h-56v-1003z" />
<glyph unicode="E" horiz-adv-x="812" d="M102 0v1365h632v-218h-396v-347h374v-198h-374v-384h419v-218h-655z" />
<glyph unicode="F" horiz-adv-x="756" d="M102 0v1365h634v-212h-398v-350h361v-198h-361v-605h-236z" />
<glyph unicode="G" horiz-adv-x="851" d="M86 462v451q0 219 27 294q64 178 317 178q190 0 266 -95q62 -78 62 -264v-73h-216v83q0 147 -107 147q-89 0 -109 -115q-4 -25 -4 -183v-386q0 -156 5 -188q21 -123 107 -123q65 0 90 55q18 40 18 154v143h-105v205h321v-745h-194l-6 82q-69 -96 -193 -96 q-147 0 -215 108q-45 71 -57 178q-7 55 -7 190z" />
<glyph unicode="H" horiz-adv-x="879" d="M102 0v1365h236v-554h202v554h236v-1365h-236v613h-202v-613h-236z" />
<glyph unicode="I" horiz-adv-x="441" d="M102 0v1365h236v-1365h-236z" />
<glyph unicode="J" horiz-adv-x="727" d="M25 279v226h225v-208q0 -56 10 -80q15 -35 57 -35q71 0 71 115v1068h236v-1038q0 -134 -12 -177q-48 -170 -291 -170q-160 0 -236 79q-60 62 -60 220z" />
<glyph unicode="K" horiz-adv-x="899" d="M102 0v1365h236v-571l267 571h253l-292 -586l328 -779h-260l-223 566l-73 -151v-415h-236z" />
<glyph unicode="L" horiz-adv-x="751" d="M102 0v1365h236v-1153h388v-212h-624z" />
<glyph unicode="M" horiz-adv-x="1174" d="M102 0v1365h363l75 -454q22 -135 44 -337l6 52q22 191 38 285l77 454h366v-1365h-225v711q0 97 5 246q4 109 7 165l-71 -397l-134 -725h-136l-202 1122l8 -156q4 -83 4 -222v-744h-225z" />
<glyph unicode="N" horiz-adv-x="922" d="M102 0v1365h255l163 -558q47 -161 96 -407l-2 62q-4 136 -7 345l-7 558h219v-1365h-255l-161 551q-45 154 -110 447q3 -44 12 -172q7 -107 9 -294l7 -532h-219z" />
<glyph unicode="O" horiz-adv-x="856" d="M86 424v517q0 195 26 262q71 182 316 182q175 0 264 -99q55 -62 71 -163q7 -50 7 -182v-517q0 -194 -26 -261q-71 -183 -316 -183q-175 0 -264 99q-55 62 -71 163q-7 50 -7 182zM322 427q0 -126 7 -159q20 -97 99 -97t99 97q7 33 7 159v511q0 126 -7 159q-20 97 -99 97 t-99 -97q-7 -33 -7 -159v-511z" />
<glyph unicode="P" horiz-adv-x="819" d="M102 0v1365h334q139 0 194 -20q93 -33 126 -142q24 -78 24 -222q0 -196 -54 -278q-67 -102 -250 -102h-138v-601h-236zM338 799h80q79 0 106 54q17 36 17 127q0 129 -39 167q-21 20 -92 20h-72v-368z" />
<glyph unicode="Q" horiz-adv-x="856" d="M86 424v518q0 194 26 261q71 182 316 182q176 0 265 -99q55 -61 70 -163q7 -49 7 -181v-518q0 -216 -39 -291q-58 -112 -200 -142q1 -21 6 -31q8 -17 54 -17h68v-191h-143q-114 0 -155 37q-35 32 -35 132v70q-78 20 -120 49q-77 53 -104 154q-16 60 -16 230zM322 427 q0 -137 15 -191q18 -65 90 -65q79 0 100 97q7 34 7 159v511q0 126 -7 160q-20 96 -100 96q-72 0 -90 -64q-15 -54 -15 -192v-511z" />
<glyph unicode="R" horiz-adv-x="851" d="M102 0v1365h323q151 0 212 -27q89 -39 115 -163q15 -70 15 -181q0 -131 -21 -179q-32 -74 -139 -98q96 -15 128 -80q24 -47 24 -156v-197q0 -212 23 -284h-248q-11 55 -11 172v249q0 97 -20 141q-27 58 -113 58h-52v-620h-236zM338 811h67q86 0 115 49q22 36 22 132 q0 119 -36 157q-24 25 -97 25h-71v-363z" />
<glyph unicode="S" horiz-adv-x="807" d="M57 354v148h225v-110q0 -210 128 -210q114 0 114 147q0 71 -27 116q-20 34 -83 89l-128 112q-104 91 -127 117q-62 70 -83 142q-16 54 -16 140q0 340 329 340q325 0 325 -357v-115h-225v80q0 190 -106 190q-98 0 -98 -121q0 -99 128 -210l135 -117q125 -108 162 -170 q53 -88 53 -233q0 -352 -359 -352q-186 0 -270 97q-77 90 -77 277z" />
<glyph unicode="T" horiz-adv-x="732" d="M11 1153v212h710v-212h-236v-1153h-236v1153h-238z" />
<glyph unicode="U" horiz-adv-x="891" d="M102 403v962h236v-989q0 -93 12 -132q23 -73 95 -73q71 0 94 73q12 40 12 132v989h236v-962q0 -163 -19 -224q-62 -199 -323 -199q-200 0 -286 121q-57 81 -57 302z" />
<glyph unicode="V" horiz-adv-x="762" d="M18 1365h238l80 -565q32 -223 55 -533q18 282 49 533l69 565h235l-201 -1365h-298z" />
<glyph unicode="W" horiz-adv-x="1218" d="M25 1365h236l78 -635q8 -62 35 -405q19 257 36 405l71 635h247l86 -635q23 -169 39 -405q4 44 14 164l20 241l68 635h239l-208 -1365h-258l-90 653q-18 127 -29 315l-6 -63q-7 -86 -23 -253l-71 -652h-269z" />
<glyph unicode="X" horiz-adv-x="803" d="M-3 0l279 720l-258 645h248l63 -169q25 -68 62 -189l10 -33q34 118 73 221l64 170h240l-252 -664l280 -701h-246l-75 208q-64 179 -84 258q-26 -91 -83 -248l-79 -218h-242z" />
<glyph unicode="Y" horiz-adv-x="819" d="M4 1365h242l83 -249q38 -114 68 -234l11 -44q45 174 81 278l85 249h241l-293 -829v-536h-236v536z" />
<glyph unicode="Z" horiz-adv-x="810" d="M45 0v161l435 992h-387v212h666v-165l-434 -988h440v-212h-720z" />
<glyph unicode="[" horiz-adv-x="478" d="M100 -335v1700h299v-184h-81v-1332h81v-184h-299z" />
<glyph unicode="\" horiz-adv-x="556" d="M38 1365h131l435 -1700h-131z" />
<glyph unicode="]" horiz-adv-x="478" d="M79 -151h81v1332h-81v184h299v-1700h-299v184z" />
<glyph unicode="^" horiz-adv-x="1024" d="M29 714l344 658h278l344 -658h-224l-260 489l-259 -489h-223z" />
<glyph unicode="_" horiz-adv-x="1024" d="M0 -112h1024v-192h-1024v192z" />
<glyph unicode="`" horiz-adv-x="1024" d="M241 1365h267l83 -239h-163z" />
<glyph unicode="a" horiz-adv-x="709" d="M75 268q0 141 20 197q30 82 132 138l103 57q80 44 80 112q0 89 -61 89t-61 -86v-69h-198v76q0 140 67 202q64 61 205 61q225 0 251 -155q9 -55 9 -134v-756h-204v70q-58 -81 -153 -81q-151 0 -180 144q-10 49 -10 135zM287 287q0 -127 59 -127q64 0 64 119v235l-57 -40 q-50 -35 -59 -80q-7 -36 -7 -107z" />
<glyph unicode="b" horiz-adv-x="725" d="M86 0v1365h212v-390q79 70 153 70q96 0 147 -65q39 -50 49 -146q3 -35 3 -158v-312q0 -163 -15 -223q-38 -152 -182 -152q-87 0 -162 81v-70h-205zM298 387q0 -227 83 -227q48 0 57 83v116v303v116q-9 83 -57 83q-83 0 -83 -228v-246z" />
<glyph unicode="c" horiz-adv-x="706" d="M75 350v359q0 167 65 247q72 89 234 89q280 0 280 -276v-99h-212v85q0 126 -75 126q-58 0 -74 -66q-6 -26 -6 -112v-341q0 -126 14 -162q15 -40 70 -40q51 0 68 40q10 24 10 85v136h212v-142q0 -127 -45 -191q-69 -99 -247 -99q-151 0 -225 80q-69 75 -69 281z" />
<glyph unicode="d" horiz-adv-x="725" d="M75 364v312q0 185 19 243q41 126 180 126q74 0 153 -70v390h212v-1365h-205v70q-74 -81 -162 -81q-109 0 -156 85q-41 74 -41 290zM287 359q0 -127 9 -161q10 -38 48 -38q83 0 83 227v246q0 228 -83 228q-38 0 -48 -38q-9 -34 -9 -161v-303z" />
<glyph unicode="e" horiz-adv-x="724" d="M75 357v266q0 183 14 238q47 184 279 184q228 0 268 -176q12 -56 12 -150v-241h-361v-164q0 -89 15 -119q18 -36 63 -36q71 0 71 90v126h212v-119q0 -144 -70 -208q-67 -59 -212 -59q-167 0 -234 87q-57 74 -57 281zM287 635h149v129q0 117 -75 117q-74 0 -74 -117v-129z " />
<glyph unicode="f" horiz-adv-x="421" d="M23 853v182h85v150q0 72 10 99q30 81 153 81h137v-180h-29q-59 0 -59 -70v-80h88v-182h-88v-853h-212v853h-85z" />
<glyph unicode="g" horiz-adv-x="722" d="M75 332v399q0 226 110 289q45 26 98 26q54 0 95 -30q23 -17 53 -53v72h205v-979q0 -175 -21 -239q-50 -152 -255 -152q-181 0 -241 105q-28 49 -28 151h211l1 -16q3 -53 13 -65q16 -20 46 -20q62 0 62 112v130q-67 -73 -151 -73q-113 0 -159 83q-39 71 -39 260zM287 325 q0 -152 54 -152q83 0 83 238v213q0 238 -83 238q-54 0 -54 -152v-385z" />
<glyph unicode="h" horiz-adv-x="750" d="M86 0v1365h212v-407q94 87 187 87q94 0 140 -61q39 -51 39 -177v-807h-212v746q0 114 -69 114q-85 0 -85 -157v-703h-212z" />
<glyph unicode="i" horiz-adv-x="384" d="M86 0v1035h212v-1035h-212zM86 1167v198h212v-198h-212z" />
<glyph unicode="j" horiz-adv-x="393" d="M27 -136h22q32 0 40 26q6 19 6 75v1070h212v-1070q0 -153 -9 -191q-19 -79 -86 -99q-34 -10 -117 -10h-68v199zM95 1167v198h212v-198h-212z" />
<glyph unicode="k" horiz-adv-x="747" d="M86 0v1365h212v-725l194 395h236l-217 -420l222 -615h-241l-194 572v-572h-212z" />
<glyph unicode="l" horiz-adv-x="384" d="M86 0v1365h212v-1365h-212z" />
<glyph unicode="m" horiz-adv-x="1083" d="M86 0v1035h205v-82q38 41 62 57q54 36 126 36q112 0 162 -97q35 39 62 59q51 38 119 38q88 0 133 -59q42 -56 42 -201v-786h-212v705q0 143 -57 143q-79 0 -79 -164v-684h-212v674q0 86 -4 116q-8 58 -55 58q-80 0 -80 -173v-675h-212z" />
<glyph unicode="n" horiz-adv-x="750" d="M86 0v1035h205v-95q43 49 73 69q56 37 124 37q176 0 176 -244v-802h-212v690q0 78 -4 98q-12 60 -61 60q-89 0 -89 -180v-668h-212z" />
<glyph unicode="o" horiz-adv-x="713" d="M75 350v334q0 150 23 211q56 150 259 150q153 0 224 -90q57 -72 57 -271v-334q0 -150 -23 -211q-56 -150 -258 -150q-163 0 -234 102q-48 69 -48 259zM287 325q0 -89 9 -118q15 -47 61 -47q45 0 60 47q9 29 9 118v385q0 88 -9 117q-15 47 -60 47q-46 0 -61 -47 q-9 -29 -9 -117v-385z" />
<glyph unicode="p" horiz-adv-x="721" d="M86 -335v1370h205v-71q81 82 165 82q114 0 156 -93q34 -75 34 -254v-364q0 -154 -11 -201q-34 -145 -175 -145q-89 0 -162 78v-402h-212zM298 409q0 -108 5 -144q15 -105 71 -105q45 0 57 72q3 22 3 105v348q0 83 -3 105q-12 72 -57 72q-56 0 -71 -106q-5 -35 -5 -144 v-203z" />
<glyph unicode="q" horiz-adv-x="728" d="M75 345v341q0 130 10 184q21 111 91 151q44 25 99 25q91 0 162 -86v75h205v-1370h-212v390q-74 -66 -154 -66q-99 0 -148 74q-53 80 -53 282zM287 342q0 -90 3 -108q11 -74 58 -74q88 0 88 229v243q0 230 -88 230q-39 0 -51 -41q-10 -35 -10 -142v-337z" />
<glyph unicode="r" horiz-adv-x="560" d="M86 0v1035h205v-161q36 77 64 110q53 61 169 61h11v-248q-40 3 -66 3q-145 0 -163 -133q-8 -58 -8 -132v-535h-212z" />
<glyph unicode="s" horiz-adv-x="649" d="M44 276v121h198v-109q0 -142 87 -142q86 0 86 116q0 37 -10 58q-15 32 -48 63l-203 193q-102 97 -102 226q0 243 275 243q269 0 269 -250v-88h-191v63q0 118 -81 118q-74 0 -74 -79q0 -48 58 -102l196 -184q56 -52 80 -99q29 -56 29 -165q0 -136 -50 -192 q-70 -78 -231 -78q-288 0 -288 287z" />
<glyph unicode="t" horiz-adv-x="444" d="M27 853v182h82v270h212v-270h88v-182h-88v-587q0 -51 5 -65q10 -30 50 -30h33v-171h-137q-146 0 -159 107q-4 34 -4 115v631h-82z" />
<glyph unicode="u" horiz-adv-x="754" d="M86 328v707h212v-696q0 -92 11 -120q12 -32 51 -32q67 0 87 87q9 38 9 139v622h212v-1035h-205v86q-37 -37 -65 -56q-60 -41 -131 -41q-99 0 -142 71q-39 64 -39 268z" />
<glyph unicode="v" horiz-adv-x="647" d="M23 1035h209l83 -651q6 -59 16 -149q1 16 12 145q1 16 23 227l44 428h213l-145 -1035h-288z" />
<glyph unicode="w" horiz-adv-x="981" d="M23 1035h211l83 -715q11 133 39 398l41 317h184l45 -292q46 -297 59 -423q16 195 37 423l27 292h209l-150 -1035h-211l-54 315q-19 113 -40 295l-6 53q-5 -40 -15 -138q-8 -75 -28 -216l-44 -309h-210z" />
<glyph unicode="x" horiz-adv-x="684" d="M-5 0l234 545l-221 490h221l49 -119q37 -91 58 -163q6 20 24 72l16 44l16 48l44 118h229l-223 -501l248 -534h-225l-55 137q-46 115 -74 205l-9 -27l-34 -102l-26 -76l-48 -137h-224z" />
<glyph unicode="y" horiz-adv-x="653" d="M23 1035h221l48 -405q25 -214 43 -451q19 282 36 451l41 405h218l-175 -1096q-25 -156 -64 -212q-43 -62 -154 -62h-143v191h55q67 0 67 47q0 13 -10 71z" />
<glyph unicode="z" horiz-adv-x="631" d="M31 0v182l322 655h-293v198h531v-182l-323 -655h331v-198h-568z" />
<glyph unicode="{" horiz-adv-x="705" d="M100 423v184q55 12 84 50t29 121v300q0 175 100 240q72 47 246 47h67v-184h-40q-84 0 -118 -27q-37 -29 -37 -133v-258q0 -119 -38 -176q-25 -37 -83 -73q55 -34 77 -66q44 -64 44 -185v-251q0 -83 12 -106q22 -43 81 -53q68 -4 63 -4h39v-184h-68q-94 0 -148 10 q-197 36 -197 286v290q0 151 -113 172z" />
<glyph unicode="|" horiz-adv-x="1024" d="M406 -341v1706h212v-1706h-212z" />
<glyph unicode="}" horiz-adv-x="705" d="M79 -151h39q85 0 120 27.5t35 132.5v258q0 119 38 176q24 37 83 73q-55 34 -77 66q-44 64 -44 185v251q0 83 -12 106q-22 43 -81 53q-51 3 -62 4h-39v184h67q94 0 148 -10q197 -36 197 -286v-290q0 -91 30 -125q34 -38 84 -47v-184q-56 -11 -85 -49.5t-29 -121.5v-300 q0 -175 -100 -240q-73 -47 -245 -47h-67v184z" />
<glyph unicode="~" horiz-adv-x="1365" d="M187 1246q50 105 74 140q86 122 222 122q73 0 221 -61q101 -42 126 -48q31 -8 61 -8q66 0 109 44q25 26 55 77l123 -72q-68 -139 -133 -190q-81 -63 -179 -63q-63 0 -294 93q-59 24 -106 24q-64 0 -108 -53q-21 -25 -52 -83z" />
<glyph unicode="&#xa1;" horiz-adv-x="438" d="M113 -332v836l31 185h149l32 -185v-836h-212zM113 782v253h212v-253h-212z" />
<glyph unicode="&#xa2;" d="M124 530v359q0 154 47 223q61 89 185 107v160h106v-157q174 -17 220 -136q21 -54 21 -137v-98h-212v84q0 125 -76 125q-58 0 -73 -65q-6 -25 -6 -111v-341q0 -128 13 -163q15 -40 70 -40q52 0 69 40q10 24 10 85v136h212v-142q0 -100 -25 -155q-53 -116 -223 -133v-198 h-106v200q-170 24 -212 162q-20 66 -20 195z" />
<glyph unicode="&#xa3;" d="M68 665v109h78l-17 44q-50 129 -50 222q0 153 89 244.5t242 91.5q327 0 327 -369v-85h-212v82q0 188 -114 188q-107 0 -107 -129q0 -76 45 -178l49 -111h163v-109h-125q21 -56 27 -76q20 -67 20 -133q0 -78 -34 -138q-23 -41 -77 -91q23 1 31 1q38 0 103 -30q15 -7 31 -7 q40 0 75 92l164 -88q-78 -213 -214 -213q-42 0 -118 38t-116 38q-51 0 -131 -40l-92 177q153 68 153 215q0 82 -35 170l-34 85h-121z" />
<glyph unicode="&#xa4;" d="M32 976l89 89l124 -124q82 54 172 54t170 -53l123 122l88 -89l-122 -122q55 -85 55 -170q0 -88 -53 -169l123 -123l-88 -89l-123 123q-91 -54 -171 -54q-89 0 -174 54l-123 -122l-88 88l122 123q-24 42 -37 75q-16 41 -16 93q0 91 54 170zM246 683q0 -71 50 -121t121 -50 t121 49.5t50 120.5q0 73 -50 122.5t-123 49.5q-70 0 -119.5 -50t-49.5 -121z" />
<glyph unicode="&#xa5;" d="M11 1365h230l87 -249q46 -133 76 -233l13 -44q41 146 88 277l89 249h228l-178 -491h162v-109h-201l-60 -164h247v-109h-270v-492h-212v492h-269v109h246l-59 164h-201v109h161z" />
<glyph unicode="&#xa6;" horiz-adv-x="1024" d="M406 314h212v-655h-212v655zM406 669v696h212v-696h-212z" />
<glyph unicode="&#xa7;" horiz-adv-x="1016" d="M89 582q0 102 65 190q33 45 106 116q-75 89 -75 198q0 293 345 293q337 0 337 -306q0 -6 -1 -36l-3 -91l-211 7l3 96q5 146 -122 146q-108 0 -108 -100q0 -87 100 -155l178 -121q106 -72 154 -128q70 -83 70 -181q0 -96 -59 -185q-34 -51 -98 -120q44 -52 61 -90 q27 -59 27 -137q0 -156 -94.5 -241.5t-252.5 -85.5q-181 0 -274 95q-71 72 -71 223v12l4 121l213 -8l-3 -77q-7 -168 121 -168q118 0 118 121q0 88 -131 177l-164 112q-118 80 -168 141q-67 81 -67 182zM302 625q0 -73 109 -147l229 -156q74 77 74 140q0 70 -120 154 l-212 148q-80 -79 -80 -139z" />
<glyph unicode="&#xa8;" horiz-adv-x="1024" d="M281 1126v239h198v-239h-198zM544 1126v239h198v-239h-198z" />
<glyph unicode="&#xa9;" horiz-adv-x="1436" d="M86 681q0 296 187 500t453 204q177 0 332 -111q146 -105 223 -272q69 -150 69 -319q0 -293 -187 -498t-445 -205q-259 0 -444 204q-188 207 -188 497zM203 683q0 -246 152 -420t363 -174t363 174t152 419q0 236 -140 409q-151 185 -381 185q-204 0 -356.5 -172.5 t-152.5 -420.5zM520 566v250q0 113 12 156q34 121 198 121q184 0 201 -146q5 -43 5 -108v-25h-153v51q0 55 -4 69q-9 36 -48 36q-42 0 -53 -41q-5 -17 -5 -77v-322q0 -58 5 -76q11 -42 53 -42q39 0 48 36q4 14 4 69v79h153v-30q0 -113 -12 -156q-34 -121 -198 -121 q-186 0 -201 159q-5 52 -5 118z" />
<glyph unicode="&#xaa;" horiz-adv-x="463" d="M64 995q0 76 19 111q17 32 79 62l55 27q35 17 35 44q0 31 -25 31q-26 0 -26 -29v-14h-129v18q0 140 162 140q86 0 120 -33.5t34 -119.5v-382h-133v16q-29 -21 -73 -21q-118 0 -118 150zM191 1003q0 -50 27 -50q34 0 34 46v92l-11 -6l-16 -8q-34 -17 -34 -74z" />
<glyph unicode="&#xab;" horiz-adv-x="799" d="M52 501l157 195h199l-160 -195l160 -195h-199zM368 501l157 195h199l-161 -195l161 -195h-199z" />
<glyph unicode="&#xac;" horiz-adv-x="1024" d="M68 349v197h887v-546h-212v349h-675z" />
<glyph unicode="&#xad;" horiz-adv-x="344" d="M0 441v191h344v-191h-344z" />
<glyph unicode="&#xae;" horiz-adv-x="1436" d="M86 681q0 296 187 500t453 204q177 0 332 -111q146 -105 223 -272q69 -150 69 -319q0 -293 -187 -498t-445 -205q-259 0 -444 204q-188 207 -188 497zM203 683q0 -246 152 -420t363 -174t363 174t152 419q0 236 -140 409q-151 185 -381 185q-204 0 -356.5 -172.5 t-152.5 -420.5zM522 300v781h196q89 0 127 -16q55 -23 71 -96q9 -40 9 -102q0 -67 -8 -91q-13 -42 -60 -65q63 -32 63 -133v-111q0 -123 17 -167h-162q-8 38 -8 105v139q0 53 -11 75q-14 28 -58 28h-23v-347h-153zM675 771h31q46 0 61 24q11 18 11 69q0 65 -19 83 q-11 11 -50 11h-34v-187z" />
<glyph unicode="&#xaf;" horiz-adv-x="1024" d="M239 1158v177h546v-177h-546z" />
<glyph unicode="&#xb0;" horiz-adv-x="758" d="M75 1085q0 128 89.5 214t218.5 86q123 0 211.5 -88t88.5 -211q0 -126 -89 -213.5t-215 -87.5t-215 87t-89 213zM205 1086q0 -73 50.5 -123t123.5 -50t123.5 50t50.5 122q0 73 -51 122.5t-125 49.5q-70 0 -121 -50.5t-51 -120.5z" />
<glyph unicode="&#xb1;" d="M74 186v153h684v-153h-684zM74 662v153h264v236h157v-236h263v-153h-263v-236h-157v236h-264z" />
<glyph unicode="&#xb2;" horiz-adv-x="573" d="M63 546q-2 189 82 324q24 38 122 149q80 90 80 151q0 80 -59 80q-60 0 -60 -92v-83h-162v63q0 111 40 163q59 76 186 76q101 0 162 -53t61 -153q0 -64 -28 -116q-23 -42 -84 -111q-79 -89 -100 -119q-53 -74 -65 -140h272v-139h-447z" />
<glyph unicode="&#xb3;" horiz-adv-x="573" d="M64 745v96h158v-83q0 -101 67 -101q43 0 57 29q10 20 10 83q0 76 -7 100q-11 37 -45 47q-18 5 -59 5h-44v123h39q58 0 76.5 20t18.5 79q0 111 -57 111q-56 0 -56 -84v-56h-154v50q0 108 42 154q53 59 170 59q113 0 168 -58q47 -50 47 -164q0 -83 -19 -121 q-14 -27 -47 -48q39 -16 58 -44q30 -45 30 -160q0 -96 -18 -139q-46 -109 -207 -109q-120 0 -181 57q-47 44 -47 154z" />
<glyph unicode="&#xb4;" horiz-adv-x="1024" d="M419 1126l83 239h267l-187 -239h-163z" />
<glyph unicode="&#xb6;" d="M38 981q0 172 34 251q42 97 140 121q50 12 170 12h348v-1700h-138v1577h-97v-1577h-138v936h-15q-183 0 -250 102q-54 82 -54 278z" />
<glyph unicode="&#xb7;" horiz-adv-x="390" d="M86 421v253h218v-253h-218z" />
<glyph unicode="&#xb8;" horiz-adv-x="1024" d="M377 -344l20 86q59 -36 109 -36q57 0 57 63q0 58 -53 58q-24 0 -53 -13l-38 41l67 145h96l-47 -95q17 6 31 6q55 0 90 -38t35 -94q0 -71 -48.5 -117t-120.5 -46q-71 0 -145 40z" />
<glyph unicode="&#xb9;" horiz-adv-x="573" d="M135 1206v103q89 4 114 56h147v-819h-161v660h-100z" />
<glyph unicode="&#xba;" horiz-adv-x="470" d="M75 1033v164q0 102 33 140q42 48 127 48t126 -48q33 -38 33 -140v-164q0 -103 -33 -141q-41 -48 -126 -48q-86 0 -127 48q-33 38 -33 141zM211 1021q0 -69 24 -69t24 69v188q0 68 -24 68t-24 -68v-188z" />
<glyph unicode="&#xbb;" horiz-adv-x="799" d="M75 306l161 195l-161 195h199l157 -195l-157 -195h-199zM391 306l160 195l-160 195h199l157 -195l-157 -195h-199z" />
<glyph unicode="&#xbc;" horiz-adv-x="1405" d="M135 1206v103q89 4 114 56h147v-819h-161v660h-100zM301 0l681 1365h123l-681 -1365h-123zM889 175v117l254 527h150v-522h66v-122h-66v-175h-152v175h-252zM1031 297h110v138q0 72 3 113q-1 -3 -49 -109z" />
<glyph unicode="&#xbd;" horiz-adv-x="1405" d="M135 1206v103q89 4 114 56h147v-819h-161v660h-100zM301 0l681 1365h123l-681 -1365h-123zM894 0q-2 189 82 324q24 38 122 149q80 90 80 152q0 80 -59 80q-60 0 -60 -93v-84h-162v63q0 112 40 164q59 76 186 76q100 0 160 -52q63 -55 63 -154q0 -65 -28 -117 q-22 -41 -84 -111q-103 -117 -128 -160q-29 -50 -37 -98h272v-139h-447z" />
<glyph unicode="&#xbe;" horiz-adv-x="1405" d="M64 745v96h158v-83q0 -101 67 -101q43 0 57 29q10 20 10 83q0 76 -7 100q-11 37 -45 47q-18 5 -59 5h-44v123h39q58 0 76.5 20t18.5 79q0 111 -57 111q-56 0 -56 -84v-56h-154v50q0 108 42 154q53 59 170 59q113 0 168 -58q47 -50 47 -164q0 -83 -19 -121 q-14 -27 -47 -48q39 -16 58 -44q30 -45 30 -160q0 -96 -18 -139q-46 -109 -207 -109q-120 0 -181 57q-47 44 -47 154zM300 0l681 1365h123l-681 -1365h-123zM889 175v117l254 527h150v-522h65v-122h-65v-175h-152v175h-252zM1031 297h110v138q0 72 3 113q-1 -3 -49 -109z " />
<glyph unicode="&#xbf;" horiz-adv-x="777" d="M51 -6q0 172 178 394l98 122q38 47 50 96q6 23 14 74h200q-1 -80 -24 -145q-36 -101 -117 -211l-90 -122q-53 -71 -63 -95q-21 -48 -21 -102q0 -146 115 -146t115 140v82h205v-120q0 -307 -309 -307q-164 0 -256 87q-95 90 -95 253zM389 782v253h212v-253h-212z" />
<glyph unicode="&#xc0;" horiz-adv-x="802" d="M18 0l217 1365h306l244 -1365h-231l-59 365h-198l-49 -365h-230zM125 1673h270l92 -239h-169zM322 563h145l-37 231q-20 124 -42 359q-17 -223 -35 -359z" />
<glyph unicode="&#xc1;" horiz-adv-x="802" d="M18 0l217 1365h306l244 -1365h-231l-59 365h-198l-49 -365h-230zM316 1434l92 239h270l-194 -239h-168zM322 563h145l-37 231q-20 124 -42 359q-17 -223 -35 -359z" />
<glyph unicode="&#xc2;" horiz-adv-x="802" d="M18 0l217 1365h306l244 -1365h-231l-59 365h-198l-49 -365h-230zM154 1434l158 239h186l151 -239h-187l-63 122l-76 -122h-169zM322 563h145l-37 231q-20 124 -42 359q-17 -223 -35 -359z" />
<glyph unicode="&#xc3;" horiz-adv-x="802" d="M18 0l217 1365h306l244 -1365h-231l-59 365h-198l-49 -365h-230zM127 1440q10 225 164 225q53 0 144 -34q40 -15 58 -15q43 0 49 50h134q-4 -86 -23 -128q-41 -91 -142 -91q-34 0 -101 23.5t-89 23.5q-38 0 -50 -54h-144zM322 563h145l-37 231q-20 124 -42 359 q-17 -223 -35 -359z" />
<glyph unicode="&#xc4;" horiz-adv-x="802" d="M18 0l217 1365h306l244 -1365h-231l-59 365h-198l-49 -365h-230zM169 1434v239h199v-239h-199zM322 563h145l-37 231q-20 124 -42 359q-17 -223 -35 -359zM434 1434v239h199v-239h-199z" />
<glyph unicode="&#xc5;" horiz-adv-x="802" d="M18 0l217 1365h306l244 -1365h-231l-59 365h-198l-49 -365h-230zM234 1601q0 71 49.5 119t120.5 48q68 0 116.5 -49t48.5 -118t-49 -118t-118 -49q-70 0 -119 48.5t-49 118.5zM322 563h145l-37 231q-20 124 -42 359q-17 -223 -35 -359zM346 1602q0 -56 56 -56t56 55 q0 56 -57 56q-55 0 -55 -55z" />
<glyph unicode="&#xc6;" horiz-adv-x="1282" d="M5 0l353 1365h847v-218h-395v-347h374v-198h-374v-384h418v-218h-654v365h-242l-88 -365h-239zM380 563h194v604h-43z" />
<glyph unicode="&#xc7;" horiz-adv-x="826" d="M86 460v446q0 200 20 274q56 205 328 205q306 0 332 -247q8 -77 8 -191v-29h-235v77q0 116 -17 154q-20 45 -87 45q-80 0 -103 -77q-10 -35 -10 -145v-578q0 -111 10 -146q22 -78 103 -78q66 0 87 46q17 37 17 155v127h235v-38q0 -228 -30 -307q-59 -156 -271 -172 l-37 -77q17 6 31 6q55 0 90 -38t35 -94q0 -71 -49 -116.5t-120 -45.5q-72 0 -145 40l19 85q59 -36 110 -36q57 0 57 63q0 58 -53 58q-23 0 -53 -13l-38 41l59 128q-120 13 -187 65q-72 55 -93 170q-13 70 -13 243z" />
<glyph unicode="&#xc8;" horiz-adv-x="812" d="M102 0v1365h632v-218h-396v-347h374v-198h-374v-384h419v-218h-655zM157 1673h270l92 -239h-169z" />
<glyph unicode="&#xc9;" horiz-adv-x="812" d="M102 0v1365h632v-218h-396v-347h374v-198h-374v-384h419v-218h-655zM320 1434l92 239h270l-194 -239h-168z" />
<glyph unicode="&#xca;" horiz-adv-x="812" d="M102 0v1365h632v-218h-396v-347h374v-198h-374v-384h419v-218h-655zM159 1434l158 239h186l151 -239h-187l-63 122l-76 -122h-169z" />
<glyph unicode="&#xcb;" horiz-adv-x="812" d="M102 0v1365h632v-218h-396v-347h374v-198h-374v-384h419v-218h-655zM174 1434v239h199v-239h-199zM439 1434v239h199v-239h-199z" />
<glyph unicode="&#xcc;" horiz-adv-x="441" d="M-56 1673h270l92 -239h-169zM102 0v1365h236v-1365h-236z" />
<glyph unicode="&#xcd;" horiz-adv-x="441" d="M102 0v1365h236v-1365h-236zM135 1434l92 239h270l-194 -239h-168z" />
<glyph unicode="&#xce;" horiz-adv-x="441" d="M-27 1434l158 239h186l151 -239h-187l-63 122l-76 -122h-169zM102 0v1365h236v-1365h-236z" />
<glyph unicode="&#xcf;" horiz-adv-x="441" d="M16 1434v239h172v-239h-172zM103 0v1365h236v-1365h-236zM254 1434v239h172v-239h-172z" />
<glyph unicode="&#xd0;" horiz-adv-x="881" d="M29 602v198h74v565h305q178 0 244 -28q103 -43 129 -176q14 -70 14 -270v-437q0 -222 -22 -290q-38 -116 -151 -147q-63 -17 -214 -17h-305v602h-74zM338 182h56q104 0 138 47q28 38 28 169v570q0 132 -28 170q-34 47 -138 47h-56v-385h107v-198h-107v-420z" />
<glyph unicode="&#xd1;" horiz-adv-x="922" d="M102 0v1365h255l163 -558q47 -161 96 -407l-2 62q-4 136 -7 345l-7 558h219v-1365h-255l-161 551q-45 154 -110 447q3 -44 12 -172q7 -107 9 -294l7 -532h-219zM186 1440q10 225 164 225q53 0 144 -34q40 -15 58 -15q43 0 49 50h134q-4 -86 -23 -128q-41 -91 -142 -91 q-34 0 -101 23.5t-89 23.5q-38 0 -50 -54h-144z" />
<glyph unicode="&#xd2;" horiz-adv-x="856" d="M86 424v517q0 195 26 262q71 182 316 182q175 0 264 -99q55 -62 71 -163q7 -50 7 -182v-517q0 -194 -26 -261q-71 -183 -316 -183q-175 0 -264 99q-55 62 -71 163q-7 50 -7 182zM152 1673h270l92 -239h-169zM322 427q0 -126 7 -159q20 -97 99 -97t99 97q7 33 7 159v511 q0 126 -7 159q-20 97 -99 97t-99 -97q-7 -33 -7 -159v-511z" />
<glyph unicode="&#xd3;" horiz-adv-x="856" d="M86 424v517q0 195 26 262q71 182 316 182q175 0 264 -99q55 -62 71 -163q7 -50 7 -182v-517q0 -194 -26 -261q-71 -183 -316 -183q-175 0 -264 99q-55 62 -71 163q-7 50 -7 182zM322 427q0 -126 7 -159q20 -97 99 -97t99 97q7 33 7 159v511q0 126 -7 159q-20 97 -99 97 t-99 -97q-7 -33 -7 -159v-511zM343 1434l92 239h270l-194 -239h-168z" />
<glyph unicode="&#xd4;" horiz-adv-x="856" d="M86 424v517q0 195 26 262q71 182 316 182q175 0 264 -99q55 -62 71 -163q7 -50 7 -182v-517q0 -194 -26 -261q-71 -183 -316 -183q-175 0 -264 99q-55 62 -71 163q-7 50 -7 182zM181 1434l158 239h186l151 -239h-187l-63 122l-76 -122h-169zM322 427q0 -126 7 -159 q20 -97 99 -97t99 97q7 33 7 159v511q0 126 -7 159q-20 97 -99 97t-99 -97q-7 -33 -7 -159v-511z" />
<glyph unicode="&#xd5;" horiz-adv-x="856" d="M86 424v517q0 195 26 262q71 182 316 182q175 0 264 -99q55 -62 71 -163q7 -50 7 -182v-517q0 -194 -26 -261q-71 -183 -316 -183q-175 0 -264 99q-55 62 -71 163q-7 50 -7 182zM153 1440q10 225 164 225q53 0 144 -34q40 -15 58 -15q43 0 49 50h134q-4 -86 -23 -128 q-41 -91 -142 -91q-34 0 -101 23.5t-89 23.5q-38 0 -50 -54h-144zM322 427q0 -126 7 -159q20 -97 99 -97t99 97q7 33 7 159v511q0 126 -7 159q-20 97 -99 97t-99 -97q-7 -33 -7 -159v-511z" />
<glyph unicode="&#xd6;" horiz-adv-x="856" d="M86 424v517q0 195 26 262q71 182 316 182q175 0 264 -99q55 -62 71 -163q7 -50 7 -182v-517q0 -194 -26 -261q-71 -183 -316 -183q-175 0 -264 99q-55 62 -71 163q-7 50 -7 182zM196 1434v239h199v-239h-199zM322 427q0 -126 7 -159q20 -97 99 -97t99 97q7 33 7 159v511 q0 126 -7 159q-20 97 -99 97t-99 -97q-7 -33 -7 -159v-511zM461 1434v239h199v-239h-199z" />
<glyph unicode="&#xd7;" d="M102 477l206 206l-206 206l109 108l205 -206l206 206l109 -108l-206 -206l206 -206l-109 -108l-206 205l-205 -205z" />
<glyph unicode="&#xd8;" horiz-adv-x="856" d="M22 -10l88 182q-23 59 -23 252v517q0 195 26 262q71 182 314 182q125 0 215 -53l56 109l83 -41l-69 -138q23 -32 39 -78q20 -56 20 -243v-517q0 -194 -26 -261q-71 -183 -315 -183q-175 0 -262 95l-59 -123zM323 406q0 -111 9 -148q21 -87 97 -87q79 0 99 97q7 33 7 159 v440l-212 -434v-27zM323 641l207 425q-3 38 -11 64q-20 64 -92 64q-77 0 -97 -98q-7 -33 -7 -158v-297z" />
<glyph unicode="&#xd9;" horiz-adv-x="891" d="M102 403v962h236v-989q0 -93 12 -132q23 -73 95 -73q71 0 94 73q12 40 12 132v989h236v-962q0 -163 -19 -224q-62 -199 -323 -199q-200 0 -286 121q-57 81 -57 302zM168 1673h270l92 -239h-169z" />
<glyph unicode="&#xda;" horiz-adv-x="891" d="M102 403v962h236v-989q0 -93 12 -132q23 -73 95 -73q71 0 94 73q12 40 12 132v989h236v-962q0 -163 -19 -224q-62 -199 -323 -199q-200 0 -286 121q-57 81 -57 302zM360 1434l92 239h270l-194 -239h-168z" />
<glyph unicode="&#xdb;" horiz-adv-x="891" d="M102 403v962h236v-989q0 -93 12 -132q23 -73 95 -73q71 0 94 73q12 40 12 132v989h236v-962q0 -163 -19 -224q-62 -199 -323 -199q-200 0 -286 121q-57 81 -57 302zM198 1434l158 239h186l151 -239h-187l-63 122l-76 -122h-169z" />
<glyph unicode="&#xdc;" horiz-adv-x="891" d="M102 403v962h236v-989q0 -93 12 -132q23 -73 95 -73q71 0 94 73q12 40 12 132v989h236v-962q0 -163 -19 -224q-62 -199 -323 -199q-200 0 -286 121q-57 81 -57 302zM213 1434v239h199v-239h-199zM478 1434v239h199v-239h-199z" />
<glyph unicode="&#xdd;" horiz-adv-x="819" d="M4 1365h242l83 -249q38 -114 68 -234l11 -44q45 174 81 278l85 249h241l-293 -829v-536h-236v536zM324 1434l92 239h270l-194 -239h-168z" />
<glyph unicode="&#xde;" horiz-adv-x="819" d="M102 0v1365h236v-259h98q139 0 194 -20q93 -33 126 -142q24 -78 24 -222q0 -197 -53 -278q-68 -103 -251 -103h-138v-341h-236zM338 539h80q80 0 106 54q17 36 17 128q0 128 -39 166q-21 21 -92 21h-72v-369z" />
<glyph unicode="&#xdf;" horiz-adv-x="744" d="M86 0v1056q0 141 22 189q58 127 264 127q151 0 217 -71q63 -68 63 -220q0 -134 -68 -191q73 -55 83 -154q5 -49 5 -127v-277q0 -186 -30 -252q-37 -80 -171 -80h-120v177q66 0 89 31q20 33 20 155v240q0 130 -36 166q-23 23 -73 29v175q41 4 60 18q29 22 29 91 q0 120 -72 120q-35 0 -51 -23q-19 -27 -19 -135v-1044h-212z" />
<glyph unicode="&#xe0;" horiz-adv-x="709" d="M75 268q0 141 20 197q30 82 132 138l103 57q80 44 80 112q0 89 -61 89t-61 -86v-69h-198v76q0 140 67 202q64 61 205 61q225 0 251 -155q9 -55 9 -134v-756h-204v70q-58 -81 -153 -81q-151 0 -180 144q-10 49 -10 135zM84 1365h267l83 -239h-163zM287 287q0 -127 59 -127 q64 0 64 119v235l-57 -40q-50 -35 -59 -80q-7 -36 -7 -107z" />
<glyph unicode="&#xe1;" horiz-adv-x="709" d="M75 268q0 141 20 197q30 82 132 138l103 57q80 44 80 112q0 89 -61 89t-61 -86v-69h-198v76q0 140 67 202q64 61 205 61q225 0 251 -155q9 -55 9 -134v-756h-204v70q-58 -81 -153 -81q-151 0 -180 144q-10 49 -10 135zM261 1126l83 239h267l-187 -239h-163zM287 287 q0 -127 59 -127q64 0 64 119v235l-57 -40q-50 -35 -59 -80q-7 -36 -7 -107z" />
<glyph unicode="&#xe2;" horiz-adv-x="709" d="M75 268q0 141 20 197q30 82 132 138l103 57q80 44 80 112q0 89 -61 89t-61 -86v-69h-198v76q0 140 67 202q64 61 205 61q225 0 251 -155q9 -55 9 -134v-756h-204v70q-58 -81 -153 -81q-151 0 -180 144q-10 49 -10 135zM109 1126l157 239h182l151 -239h-188l-65 123 l-80 -123h-157zM287 287q0 -127 59 -127q64 0 64 119v235l-57 -40q-50 -35 -59 -80q-7 -36 -7 -107z" />
<glyph unicode="&#xe3;" horiz-adv-x="709" d="M75 268q0 141 20 197q30 82 132 138l103 57q80 44 80 112q0 89 -61 89t-61 -86v-69h-198v76q0 140 67 202q64 61 205 61q225 0 251 -155q9 -55 9 -134v-756h-204v70q-58 -81 -153 -81q-151 0 -180 144q-10 49 -10 135zM82 1132q3 225 171 225q40 0 137 -34q34 -12 55 -12 q38 0 48 49h133q0 -220 -159 -220q-43 0 -111 24q-62 22 -84 22q-40 0 -46 -54h-144zM287 287q0 -127 59 -127q64 0 64 119v235l-57 -40q-50 -35 -59 -80q-7 -36 -7 -107z" />
<glyph unicode="&#xe4;" horiz-adv-x="709" d="M75 268q0 141 20 197q30 82 132 138l103 57q80 44 80 112q0 89 -61 89t-61 -86v-69h-198v76q0 140 67 202q64 61 205 61q225 0 251 -155q9 -55 9 -134v-756h-204v70q-58 -81 -153 -81q-151 0 -180 144q-10 49 -10 135zM123 1126v239h198v-239h-198zM287 287 q0 -127 59 -127q64 0 64 119v235l-57 -40q-50 -35 -59 -80q-7 -36 -7 -107zM386 1126v239h198v-239h-198z" />
<glyph unicode="&#xe5;" horiz-adv-x="709" d="M75 268q0 141 20 197q30 82 132 138l103 57q80 44 80 112q0 89 -61 89t-61 -86v-69h-198v76q0 140 67 202q64 61 205 61q225 0 251 -155q9 -55 9 -134v-756h-204v70q-58 -81 -153 -81q-151 0 -180 144q-10 49 -10 135zM187 1284q0 70 49 118.5t120 48.5q68 0 116.5 -49 t48.5 -118t-49 -118t-118 -49t-118 49t-49 118zM287 287q0 -127 59 -127q64 0 64 119v235l-57 -40q-50 -35 -59 -80q-7 -36 -7 -107zM299 1284q0 -56 56 -56q55 0 55 55q0 56 -56 56q-55 0 -55 -55z" />
<glyph unicode="&#xe6;" horiz-adv-x="1023" d="M75 290q0 129 24 187q29 70 129 125l105 58q77 43 77 107q0 94 -61 94t-61 -78v-78h-198v86q0 254 271 254q97 0 164 -40q72 40 165 40q137 0 201 -70q56 -61 56 -224v-277h-331v-217q0 -97 65 -97q39 0 53 29q10 20 10 76v100h203v-151q0 -225 -255 -225q-97 0 -156 30 q-36 18 -77 62q-67 -92 -183 -92q-119 0 -166 82q-35 61 -35 219zM287 295q0 -135 57 -135q60 0 60 124v230l-53 -39q-44 -32 -56 -80q-8 -29 -8 -100zM616 631h128v157q0 93 -64 93t-64 -93v-157z" />
<glyph unicode="&#xe7;" horiz-adv-x="706" d="M75 350v359q0 167 65 247q72 89 234 89q280 0 280 -276v-99h-212v85q0 126 -75 126q-58 0 -74 -66q-6 -26 -6 -112v-341q0 -126 14 -162q15 -40 70 -40q51 0 68 40q10 24 10 85v136h212v-142q0 -100 -25 -155q-53 -116 -217 -133l-43 -87q17 7 31 7q55 0 90 -38t35 -94 q0 -71 -48.5 -117t-120.5 -46q-71 0 -145 40l20 85q59 -36 108 -36q57 0 57 64q0 58 -52 58q-23 0 -53 -14l-38 41l64 137q-186 21 -229 164q-20 66 -20 195z" />
<glyph unicode="&#xe8;" horiz-adv-x="724" d="M75 357v266q0 183 14 238q47 184 279 184q228 0 268 -176q12 -56 12 -150v-241h-361v-164q0 -89 15 -119q18 -36 63 -36q71 0 71 90v126h212v-119q0 -144 -70 -208q-67 -59 -212 -59q-167 0 -234 87q-57 74 -57 281zM91 1365h267l83 -239h-163zM287 635h149v129 q0 117 -75 117q-74 0 -74 -117v-129z" />
<glyph unicode="&#xe9;" horiz-adv-x="724" d="M75 357v266q0 183 14 238q47 184 279 184q228 0 268 -176q12 -56 12 -150v-241h-361v-164q0 -89 15 -119q18 -36 63 -36q71 0 71 90v126h212v-119q0 -144 -70 -208q-67 -59 -212 -59q-167 0 -234 87q-57 74 -57 281zM269 1126l83 239h267l-187 -239h-163zM287 635h149 v129q0 117 -75 117q-74 0 -74 -117v-129z" />
<glyph unicode="&#xea;" horiz-adv-x="724" d="M75 357v266q0 183 14 238q47 184 279 184q228 0 268 -176q12 -56 12 -150v-241h-361v-164q0 -89 15 -119q18 -36 63 -36q71 0 71 90v126h212v-119q0 -144 -70 -208q-67 -59 -212 -59q-167 0 -234 87q-57 74 -57 281zM117 1126l157 239h182l151 -239h-188l-65 123 l-80 -123h-157zM287 635h149v129q0 117 -75 117q-74 0 -74 -117v-129z" />
<glyph unicode="&#xeb;" horiz-adv-x="724" d="M75 357v266q0 183 14 238q47 184 279 184q228 0 268 -176q12 -56 12 -150v-241h-361v-164q0 -89 15 -119q18 -36 63 -36q71 0 71 90v126h212v-119q0 -144 -70 -208q-67 -59 -212 -59q-167 0 -234 87q-57 74 -57 281zM131 1126v239h198v-239h-198zM287 635h149v129 q0 117 -75 117q-74 0 -74 -117v-129zM394 1126v239h198v-239h-198z" />
<glyph unicode="&#xec;" horiz-adv-x="384" d="M-79 1365h267l83 -239h-163zM86 0v1035h212v-1035h-212z" />
<glyph unicode="&#xed;" horiz-adv-x="384" d="M86 0v1035h212v-1035h-212zM99 1126l83 239h267l-187 -239h-163z" />
<glyph unicode="&#xee;" horiz-adv-x="384" d="M-53 1126l157 239h182l151 -239h-188l-65 123l-80 -123h-157zM86 0v1035h212v-1035h-212z" />
<glyph unicode="&#xef;" horiz-adv-x="384" d="M1 1126v239h158v-239h-158zM86 0v1035h212v-1035h-212zM225 1126v239h158v-239h-158z" />
<glyph unicode="&#xf0;" horiz-adv-x="713" d="M75 350v334q0 173 13 222q37 139 181 139q49 0 88 -22q23 -13 53 -43q-55 100 -110 180l-90 -78l-74 85l95 82q-32 37 -79 85l94 84q47 -49 79 -87l96 83l74 -85l-98 -85q62 -80 109 -157q132 -217 132 -425v-312q0 -150 -23 -211q-56 -150 -258 -150q-163 0 -234 102 q-48 69 -48 259zM287 325q0 -89 9 -118q15 -47 61 -47q45 0 60 47q9 29 9 118v385q0 88 -9 117q-15 47 -60 47q-46 0 -61 -47q-9 -29 -9 -117v-385z" />
<glyph unicode="&#xf1;" horiz-adv-x="750" d="M86 0v1035h205v-95q43 49 73 69q56 37 124 37q176 0 176 -244v-802h-212v690q0 78 -4 98q-12 60 -61 60q-89 0 -89 -180v-668h-212zM103 1132q3 225 171 225q40 0 137 -34q34 -12 55 -12q38 0 48 49h133q0 -220 -159 -220q-43 0 -111 24q-62 22 -84 22q-40 0 -46 -54 h-144z" />
<glyph unicode="&#xf2;" horiz-adv-x="713" d="M75 350v334q0 150 23 211q56 150 259 150q153 0 224 -90q57 -72 57 -271v-334q0 -150 -23 -211q-56 -150 -258 -150q-163 0 -234 102q-48 69 -48 259zM86 1365h267l83 -239h-163zM287 325q0 -89 9 -118q15 -47 61 -47q45 0 60 47q9 29 9 118v385q0 88 -9 117 q-15 47 -60 47q-46 0 -61 -47q-9 -29 -9 -117v-385z" />
<glyph unicode="&#xf3;" horiz-adv-x="713" d="M75 350v334q0 150 23 211q56 150 259 150q153 0 224 -90q57 -72 57 -271v-334q0 -150 -23 -211q-56 -150 -258 -150q-163 0 -234 102q-48 69 -48 259zM263 1126l83 239h267l-187 -239h-163zM287 325q0 -89 9 -118q15 -47 61 -47q45 0 60 47q9 29 9 118v385q0 88 -9 117 q-15 47 -60 47q-46 0 -61 -47q-9 -29 -9 -117v-385z" />
<glyph unicode="&#xf4;" horiz-adv-x="713" d="M75 350v334q0 150 23 211q56 150 259 150q153 0 224 -90q57 -72 57 -271v-334q0 -150 -23 -211q-56 -150 -258 -150q-163 0 -234 102q-48 69 -48 259zM111 1126l157 239h182l151 -239h-188l-65 123l-80 -123h-157zM287 325q0 -89 9 -118q15 -47 61 -47q45 0 60 47 q9 29 9 118v385q0 88 -9 117q-15 47 -60 47q-46 0 -61 -47q-9 -29 -9 -117v-385z" />
<glyph unicode="&#xf5;" horiz-adv-x="713" d="M75 350v334q0 150 23 211q56 150 259 150q153 0 224 -90q57 -72 57 -271v-334q0 -150 -23 -211q-56 -150 -258 -150q-163 0 -234 102q-48 69 -48 259zM84 1132q3 225 171 225q40 0 137 -34q34 -12 55 -12q38 0 48 49h133q0 -220 -159 -220q-43 0 -111 24q-62 22 -84 22 q-40 0 -46 -54h-144zM287 325q0 -89 9 -118q15 -47 61 -47q45 0 60 47q9 29 9 118v385q0 88 -9 117q-15 47 -60 47q-46 0 -61 -47q-9 -29 -9 -117v-385z" />
<glyph unicode="&#xf6;" horiz-adv-x="713" d="M75 350v334q0 150 23 211q56 150 259 150q153 0 224 -90q57 -72 57 -271v-334q0 -150 -23 -211q-56 -150 -258 -150q-163 0 -234 102q-48 69 -48 259zM126 1126v239h198v-239h-198zM287 325q0 -89 9 -118q15 -47 61 -47q45 0 60 47q9 29 9 118v385q0 88 -9 117 q-15 47 -60 47q-46 0 -61 -47q-9 -29 -9 -117v-385zM389 1126v239h198v-239h-198z" />
<glyph unicode="&#xf7;" d="M74 606v153h684v-153h-684zM327 296v212h177v-212h-177zM327 857v212h177v-212h-177z" />
<glyph unicode="&#xf8;" horiz-adv-x="713" d="M26 -22l75 153q-26 59 -26 219v334q0 150 23 211q56 150 256 150q114 0 186 -51l58 113l100 -49l-84 -162q24 -55 24 -212v-334q0 -150 -23 -211q-56 -150 -256 -150q-105 0 -180 47l-53 -109zM287 454l139 275q-1 59 -5 80q-13 65 -64 65q-47 0 -61 -47q-9 -30 -9 -117 v-256zM288 279q0 -31 4 -54q11 -65 65 -65q45 0 60 47q9 29 9 118v234z" />
<glyph unicode="&#xf9;" horiz-adv-x="754" d="M86 328v707h212v-696q0 -92 11 -120q12 -32 51 -32q67 0 87 87q9 38 9 139v622h212v-1035h-205v86q-37 -37 -65 -56q-60 -41 -131 -41q-99 0 -142 71q-39 64 -39 268zM106 1365h267l83 -239h-163z" />
<glyph unicode="&#xfa;" horiz-adv-x="754" d="M86 328v707h212v-696q0 -92 11 -120q12 -32 51 -32q67 0 87 87q9 38 9 139v622h212v-1035h-205v86q-37 -37 -65 -56q-60 -41 -131 -41q-99 0 -142 71q-39 64 -39 268zM284 1126l83 239h267l-187 -239h-163z" />
<glyph unicode="&#xfb;" horiz-adv-x="754" d="M86 328v707h212v-696q0 -92 11 -120q12 -32 51 -32q67 0 87 87q9 38 9 139v622h212v-1035h-205v86q-37 -37 -65 -56q-60 -41 -131 -41q-99 0 -142 71q-39 64 -39 268zM132 1126l157 239h182l151 -239h-188l-65 123l-80 -123h-157z" />
<glyph unicode="&#xfc;" horiz-adv-x="754" d="M86 328v707h212v-696q0 -92 11 -120q12 -32 51 -32q67 0 87 87q9 38 9 139v622h212v-1035h-205v86q-37 -37 -65 -56q-60 -41 -131 -41q-99 0 -142 71q-39 64 -39 268zM146 1126v239h198v-239h-198zM409 1126v239h198v-239h-198z" />
<glyph unicode="&#xfd;" horiz-adv-x="653" d="M23 1035h221l48 -405q25 -214 43 -451q19 282 36 451l41 405h218l-175 -1096q-25 -156 -64 -212q-43 -62 -154 -62h-143v191h55q67 0 67 47q0 13 -10 71zM233 1126l83 239h267l-187 -239h-163z" />
<glyph unicode="&#xfe;" horiz-adv-x="721" d="M86 -335v1700h212v-395q78 75 158 75q114 0 156 -92q34 -75 34 -255v-363q0 -154 -11 -201q-34 -145 -175 -145q-89 0 -162 78v-402h-212zM298 409q0 -108 5 -144q15 -105 71 -105q45 0 57 72q3 22 3 104v348q0 82 -3 104q-12 72 -57 72q-56 0 -71 -105q-5 -35 -5 -143 v-203z" />
<glyph unicode="&#xff;" horiz-adv-x="653" d="M23 1035h221l48 -405q25 -214 43 -451q19 282 36 451l41 405h218l-175 -1096q-25 -156 -64 -212q-43 -62 -154 -62h-143v191h55q67 0 67 47q0 13 -10 71zM96 1126v239h198v-239h-198zM359 1126v239h198v-239h-198z" />
<glyph unicode="&#x152;" horiz-adv-x="1229" d="M86 486v403q0 204 26 289q62 201 304 201q32 0 109 -9q43 -5 87 -5h538v-218h-362v-347h338v-198h-338v-384h386v-218h-594q-13 0 -66.5 -2t-83.5 -2q-189 0 -274 117q-70 97 -70 373zM322 495q0 -200 17 -248q21 -60 98 -60t98 60q17 48 17 248v385q0 202 -17 249 q-21 59 -98 59t-98 -59q-17 -47 -17 -249v-385z" />
<glyph unicode="&#x153;" horiz-adv-x="1046" d="M75 350v335q0 149 23 210q56 150 256 150q103 0 176 -44q67 44 177 44q147 0 210 -83q54 -71 54 -243v-241h-333v-164q0 -71 5 -95q13 -60 58 -60q58 0 58 90v126h212v-119q0 -140 -63 -203.5t-201 -63.5q-112 0 -180 43q-73 -43 -172 -43q-161 0 -232 102 q-48 69 -48 259zM287 325q0 -90 9 -119q15 -47 61 -47q45 0 60 47q9 29 9 119v385q0 89 -9 118q-15 46 -60 46q-47 0 -61 -46q-9 -29 -9 -118v-385zM638 635h121v129q0 117 -60 117q-61 0 -61 -117v-129z" />
<glyph unicode="&#x178;" horiz-adv-x="819" d="M4 1365h242l83 -249q38 -114 68 -234l11 -44q45 174 81 278l85 249h241l-293 -829v-536h-236v536zM177 1434v239h199v-239h-199zM442 1434v239h199v-239h-199z" />
<glyph unicode="&#x2c6;" horiz-adv-x="1024" d="M267 1126l157 239h182l151 -239h-188l-65 123l-80 -123h-157z" />
<glyph unicode="&#x2dc;" horiz-adv-x="1024" d="M240 1132q3 225 171 225q40 0 137 -34q34 -12 55 -12q38 0 48 49h133q0 -220 -159 -220q-43 0 -111 24q-62 22 -84 22q-40 0 -46 -54h-144z" />
<glyph unicode="&#x2000;" horiz-adv-x="884" />
<glyph unicode="&#x2001;" horiz-adv-x="1768" />
<glyph unicode="&#x2002;" horiz-adv-x="884" />
<glyph unicode="&#x2003;" horiz-adv-x="1768" />
<glyph unicode="&#x2004;" horiz-adv-x="589" />
<glyph unicode="&#x2005;" horiz-adv-x="442" />
<glyph unicode="&#x2006;" horiz-adv-x="294" />
<glyph unicode="&#x2007;" horiz-adv-x="294" />
<glyph unicode="&#x2008;" horiz-adv-x="221" />
<glyph unicode="&#x2009;" horiz-adv-x="353" />
<glyph unicode="&#x200a;" horiz-adv-x="98" />
<glyph unicode="&#x2010;" horiz-adv-x="344" d="M0 441v191h344v-191h-344z" />
<glyph unicode="&#x2011;" horiz-adv-x="344" d="M0 441v191h344v-191h-344z" />
<glyph unicode="&#x2012;" horiz-adv-x="344" d="M0 441v191h344v-191h-344z" />
<glyph unicode="&#x2013;" d="M72 441v191h688v-191h-688z" />
<glyph unicode="&#x2014;" horiz-adv-x="911" d="M0 441v191h911v-191h-911z" />
<glyph unicode="&#x2018;" horiz-adv-x="384" d="M86 921v245l212 220v-119l-89 -93h89v-253h-212z" />
<glyph unicode="&#x2019;" horiz-adv-x="384" d="M86 900v119l89 93h-89v253h212v-245z" />
<glyph unicode="&#x201a;" horiz-adv-x="384" d="M86 0v253h212v-245l-212 -220v119l89 93h-89z" />
<glyph unicode="&#x201c;" horiz-adv-x="666" d="M86 921v245l212 220v-119l-89 -93h89v-253h-212zM368 921v245l212 220v-119l-89 -93h89v-253h-212z" />
<glyph unicode="&#x201d;" horiz-adv-x="666" d="M86 900v119l89 93h-89v253h212v-245zM368 900v119l89 93h-89v253h212v-245z" />
<glyph unicode="&#x201e;" horiz-adv-x="666" d="M86 0v253h212v-245l-212 -220v119l89 93h-89zM368 0v253h212v-245l-212 -220v119l89 93h-89z" />
<glyph unicode="&#x2022;" horiz-adv-x="1365" d="M401 694q0 121 83.5 202.5t204.5 81.5q116 0 198 -84t82 -200q0 -119 -82.5 -201.5t-201.5 -82.5q-118 0 -201 83t-83 201z" />
<glyph unicode="&#x2026;" horiz-adv-x="1171" d="M86 0v253h218v-253h-218zM476 0v253h218v-253h-218zM867 0v253h218v-253h-218z" />
<glyph unicode="&#x202f;" horiz-adv-x="353" />
<glyph unicode="&#x2039;" horiz-adv-x="483" d="M52 501l157 195h199l-160 -195l160 -195h-199z" />
<glyph unicode="&#x203a;" horiz-adv-x="483" d="M75 306l161 195l-161 195h199l157 -195l-157 -195h-199z" />
<glyph unicode="&#x205f;" horiz-adv-x="442" />
<glyph unicode="&#x2122;" horiz-adv-x="1146" d="M11 1233v135h428v-135h-137v-646h-153v646h-138zM489 587v781h226l45 -261q6 -36 17 -120q8 64 18 120l45 261h228v-781h-147v406q0 52 2 117q-7 -42 -20 -110l-79 -413h-92l-97 517q1 -50 1 -92v-425h-147z" />
<glyph unicode="&#xe000;" horiz-adv-x="1035" d="M0 0v1035h1035v-1035h-1035z" />
</font>
</defs>
</svg>
